HIERARCHY
ROOT Hips
{
	OFFSET 0.000000 100.481300 0.000000
	CHANNELS 6 Xposition Yposition Zposition Xrotation Yrotation Zrotation
	JOINT Spine
	{
		OFFSET -0.279200 12.230698 -2.892100
		CHANNELS 3 Xrotation Yrotation Zrotation
		JOINT Spine1
		{
			OFFSET -0.325700 14.269203 -3.374200
			CHANNELS 3 Xrotation Yrotation Zrotation
			JOINT Spine2
			{
				OFFSET -0.372300 16.307602 -0.352600
				CHANNELS 3 Xrotation Yrotation Zrotation
				JOINT Neck
				{
					OFFSET -0.418800 17.814194 8.416900
					CHANNELS 3 Xrotation Yrotation Zrotation
					JOINT Head
					{
						OFFSET 0.000000 7.031097 3.806800
						CHANNELS 3 Xrotation Yrotation Zrotation
						JOINT HeadTop_End
						{
							OFFSET 0.000000 24.646606 12.978600
							CHANNELS 3 Xrotation Yrotation Zrotation
							End Site
							{
								OFFSET 0.000000 27.854965 0.000000
							}
						}
					}
				}
				JOINT LeftShoulder
				{
					OFFSET 16.952999 14.495407 -7.737500
					CHANNELS 3 Xrotation Yrotation Zrotation
					JOINT LeftArm
					{
						OFFSET 9.308998 -2.777710 0.208600
						CHANNELS 3 Xrotation Yrotation Zrotation
						JOINT LeftForeArm
						{
							OFFSET 29.972298 0.000000 0.000000
							CHANNELS 3 Xrotation Yrotation Zrotation
							JOINT LeftHand
							{
								OFFSET 26.026505 0.000000 0.000000
								CHANNELS 3 Xrotation Yrotation Zrotation
								JOINT LeftHandThumb1
								{
									OFFSET 12.240501 -7.147949 9.207150
									CHANNELS 3 Xrotation Yrotation Zrotation
									JOINT LeftHandThumb2
									{
										OFFSET 4.138618 -2.389435 2.389433
										CHANNELS 3 Xrotation Yrotation Zrotation
										JOINT LeftHandThumb3
										{
											OFFSET 2.726913 -1.574387 1.574386
											CHANNELS 3 Xrotation Yrotation Zrotation
											JOINT LeftHandThumb4
											{
												OFFSET 3.941010 -2.275345 2.275342
												CHANNELS 3 Xrotation Yrotation Zrotation
												End Site
												{
													OFFSET -0.005798 5.087799 0.009903
												}
											}
										}
									}
								}
								JOINT LeftHandIndex1
								{
									OFFSET 24.424698 -1.985611 5.953459
									CHANNELS 3 Xrotation Yrotation Zrotation
									JOINT LeftHandIndex2
									{
										OFFSET 6.426697 0.000000 0.000000
										CHANNELS 3 Xrotation Yrotation Zrotation
										JOINT LeftHandIndex3
										{
											OFFSET 5.337898 0.000000 0.000000
											CHANNELS 3 Xrotation Yrotation Zrotation
											JOINT LeftHandIndex4
											{
												OFFSET 4.409401 0.000000 0.000000
												CHANNELS 3 Xrotation Yrotation Zrotation
												End Site
												{
													OFFSET 0.000000 4.409363 0.014373
												}
											}
										}
									}
								}
								JOINT LeftHandMiddle1
								{
									OFFSET 23.810104 0.000000 0.000000
									CHANNELS 3 Xrotation Yrotation Zrotation
									JOINT LeftHandMiddle2
									{
										OFFSET 7.176498 0.000000 0.000000
										CHANNELS 3 Xrotation Yrotation Zrotation
										JOINT LeftHandMiddle3
										{
											OFFSET 6.774902 0.000000 0.000000
											CHANNELS 3 Xrotation Yrotation Zrotation
											JOINT LeftHandMiddle4
											{
												OFFSET 5.403328 0.000000 0.000000
												CHANNELS 3 Xrotation Yrotation Zrotation
												End Site
												{
													OFFSET -0.027702 5.403244 0.017414
												}
											}
										}
									}
								}
								JOINT LeftHandRing1
								{
									OFFSET 22.908401 -0.839279 -6.020567
									CHANNELS 3 Xrotation Yrotation Zrotation
									JOINT LeftHandRing2
									{
										OFFSET 6.337502 0.000000 0.000000
										CHANNELS 3 Xrotation Yrotation Zrotation
										JOINT LeftHandRing3
										{
											OFFSET 5.779297 0.000000 0.000000
											CHANNELS 3 Xrotation Yrotation Zrotation
											JOINT LeftHandRing4
											{
												OFFSET 4.965698 0.000000 0.000000
												CHANNELS 3 Xrotation Yrotation Zrotation
												End Site
												{
													OFFSET 0.000000 4.965668 0.016186
												}
											}
										}
									}
								}
								JOINT LeftHandPinky1
								{
									OFFSET 20.037003 -1.530319 -10.950146
									CHANNELS 3 Xrotation Yrotation Zrotation
									JOINT LeftHandPinky2
									{
										OFFSET 5.254700 0.000000 0.000000
										CHANNELS 3 Xrotation Yrotation Zrotation
										JOINT LeftHandPinky3
										{
											OFFSET 4.810204 0.000000 0.000000
											CHANNELS 3 Xrotation Yrotation Zrotation
											JOINT LeftHandPinky4
											{
												OFFSET 3.647202 0.000000 0.000000
												CHANNELS 3 Xrotation Yrotation Zrotation
												End Site
												{
													OFFSET 0.000000 3.647186 0.011889
												}
											}
										}
									}
								}
							}
						}
					}
				}
				JOINT RightShoulder
				{
					OFFSET -15.141001 14.495407 -7.737500
					CHANNELS 3 Xrotation Yrotation Zrotation
					JOINT RightArm
					{
						OFFSET -9.308998 -2.777710 0.208500
						CHANNELS 3 Xrotation Yrotation Zrotation
						JOINT RightForeArm
						{
							OFFSET -29.972300 0.000000 0.000000
							CHANNELS 3 Xrotation Yrotation Zrotation
							JOINT RightHand
							{
								OFFSET -26.026505 0.000000 0.000000
								CHANNELS 3 Xrotation Yrotation Zrotation
								JOINT RightHandThumb1
								{
									OFFSET -12.240601 -7.148026 9.207092
									CHANNELS 3 Xrotation Yrotation Zrotation
									JOINT RightHandThumb2
									{
										OFFSET -4.138618 -2.389435 2.389433
										CHANNELS 3 Xrotation Yrotation Zrotation
										JOINT RightHandThumb3
										{
											OFFSET -2.726974 -1.574417 1.574421
											CHANNELS 3 Xrotation Yrotation Zrotation
											JOINT RightHandThumb4
											{
												OFFSET -3.941010 -2.275345 2.275343
												CHANNELS 3 Xrotation Yrotation Zrotation
												End Site
												{
													OFFSET 0.005814 5.087799 0.009927
												}
											}
										}
									}
								}
								JOINT RightHandIndex1
								{
									OFFSET -24.424698 -1.985657 5.953444
									CHANNELS 3 Xrotation Yrotation Zrotation
									JOINT RightHandIndex2
									{
										OFFSET -6.426697 0.000000 0.000000
										CHANNELS 3 Xrotation Yrotation Zrotation
										JOINT RightHandIndex3
										{
											OFFSET -5.337898 0.000000 0.000000
											CHANNELS 3 Xrotation Yrotation Zrotation
											JOINT RightHandIndex4
											{
												OFFSET -4.409401 0.000000 0.000000
												CHANNELS 3 Xrotation Yrotation Zrotation
												End Site
												{
													OFFSET 0.000000 4.409363 0.014408
												}
											}
										}
									}
								}
								JOINT RightHandMiddle1
								{
									OFFSET -23.810097 0.000000 0.000000
									CHANNELS 3 Xrotation Yrotation Zrotation
									JOINT RightHandMiddle2
									{
										OFFSET -7.176498 0.000000 0.000000
										CHANNELS 3 Xrotation Yrotation Zrotation
										JOINT RightHandMiddle3
										{
											OFFSET -6.774902 0.000000 0.000000
											CHANNELS 3 Xrotation Yrotation Zrotation
											JOINT RightHandMiddle4
											{
												OFFSET -5.403328 0.000000 0.000000
												CHANNELS 3 Xrotation Yrotation Zrotation
												End Site
												{
													OFFSET 0.027702 5.403244 0.017457
												}
											}
										}
									}
								}
								JOINT RightHandRing1
								{
									OFFSET -22.908302 -0.839325 -6.020576
									CHANNELS 3 Xrotation Yrotation Zrotation
									JOINT RightHandRing2
									{
										OFFSET -6.337502 0.000000 0.000000
										CHANNELS 3 Xrotation Yrotation Zrotation
										JOINT RightHandRing3
										{
											OFFSET -5.779297 0.000000 0.000000
											CHANNELS 3 Xrotation Yrotation Zrotation
											JOINT RightHandRing4
											{
												OFFSET -4.965698 0.000000 0.000000
												CHANNELS 3 Xrotation Yrotation Zrotation
												End Site
												{
													OFFSET 0.000000 4.965668 0.016226
												}
											}
										}
									}
								}
								JOINT RightHandPinky1
								{
									OFFSET -20.037003 -1.530334 -10.950259
									CHANNELS 3 Xrotation Yrotation Zrotation
									JOINT RightHandPinky2
									{
										OFFSET -5.254700 0.000000 0.000000
										CHANNELS 3 Xrotation Yrotation Zrotation
										JOINT RightHandPinky3
										{
											OFFSET -4.810204 0.000000 0.000000
											CHANNELS 3 Xrotation Yrotation Zrotation
											JOINT RightHandPinky4
											{
												OFFSET -3.647202 0.000000 0.000000
												CHANNELS 3 Xrotation Yrotation Zrotation
												End Site
												{
													OFFSET 0.000000 3.647186 0.011917
												}
											}
										}
									}
								}
							}
						}
					}
				}
			}
		}
	}
	JOINT LeftUpLeg
	{
		OFFSET 15.427100 -6.655098 0.678600
		CHANNELS 3 Xrotation Yrotation Zrotation
		JOINT LeftLeg
		{
			OFFSET 4.081073 -39.591068 13.024000
			CHANNELS 3 Xrotation Yrotation Zrotation
			JOINT LeftFoot
			{
				OFFSET -4.081074 -37.707932 -15.979700
				CHANNELS 3 Xrotation Yrotation Zrotation
				JOINT LeftToeBase
				{
					OFFSET 5.346399 -15.068900 20.645000
					CHANNELS 3 Xrotation Yrotation Zrotation
					JOINT LeftToe_End
					{
						OFFSET 2.754700 0.931300 11.300900
						CHANNELS 3 Xrotation Yrotation Zrotation
						End Site
						{
							OFFSET 0.000000 11.669021 0.000000
						}
					}
				}
			}
		}
	}
	JOINT RightUpLeg
	{
		OFFSET -15.569500 -6.655098 0.678600
		CHANNELS 3 Xrotation Yrotation Zrotation
		JOINT RightLeg
		{
			OFFSET -4.081825 -39.591045 13.023800
			CHANNELS 3 Xrotation Yrotation Zrotation
			JOINT RightFoot
			{
				OFFSET 4.081824 -37.707954 -15.979600
				CHANNELS 3 Xrotation Yrotation Zrotation
				JOINT RightToeBase
				{
					OFFSET -5.346400 -15.068900 20.645000
					CHANNELS 3 Xrotation Yrotation Zrotation
					JOINT RightToe_End
					{
						OFFSET -2.754700 0.931300 11.300900
						CHANNELS 3 Xrotation Yrotation Zrotation
						End Site
						{
							OFFSET 0.000000 11.669021 0.000000
						}
					}
				}
			}
		}
	}
}
MOTION
Frames: 4
Frame Time: 0.033333
0.226232 96.199440 -0.878380 0.029118 -1.708264 -0.874407 1.150740 0.379802 -1.128740 2.327250 0.883532 -0.406253 2.328234 0.878083 -0.412150 -8.531684 0.316099 -0.346608 0.149900 0.636400 4.206093 0.000000 0.000000 0.000000 0.862292 0.873271 -5.074840 21.878249 -49.175357 -44.286025 0.000001 -24.600955 0.000005 -31.507553 17.642630 -6.530769 -1.593588 7.402369 6.696201 5.056544 22.083786 1.753613 0.055938 8.625988 3.219147 0.000001 0.000002 -0.000002 0.058208 0.895306 -7.440306 0.058220 0.895305 -7.440274 0.014569 0.448597 -3.719934 0.000000 0.000000 -0.000002 0.057956 0.893396 -7.424304 0.058470 0.897213 -7.456272 0.014562 0.448599 -3.719928 -0.000001 0.000000 0.000001 0.058208 0.895306 -7.440305 0.058219 0.895305 -7.440273 0.014567 0.448596 -3.719931 -0.000000 0.000000 0.000000 0.566750 4.917669 -6.955674 0.048212 -3.159500 -7.946753 0.014571 0.448596 -3.719936 -0.000001 0.000000 0.000001 1.643623 5.036307 8.774108 17.876026 50.703667 48.892021 0.000001 9.233425 0.000004 -28.546841 7.320905 -3.597045 -1.870801 -5.360480 -6.862591 5.790449 -21.760518 -1.082728 -0.678332 -6.408212 -2.785396 -0.000001 -0.000001 0.000002 0.055308 -0.877073 7.216637 0.055308 -0.877082 7.216624 0.013835 -0.439412 3.608093 0.000003 0.000000 -0.000000 0.055309 -0.877073 7.216636 0.055311 -0.877083 7.216623 0.013833 -0.439417 3.608091 0.000001 0.000001 -0.000001 0.055314 -0.877080 7.216622 0.055308 -0.877075 7.216638 0.013835 -0.439415 3.608094 0.000001 0.000001 -0.000000 0.055308 -0.877073 7.216636 0.055311 -0.877083 7.216623 0.013837 -0.439413 3.608095 0.000001 -0.000000 0.000001 -9.812166 0.272901 6.288711 15.223665 8.315100 1.751313 -4.447727 1.132459 -7.747915 -0.000607 -0.000002 0.000000 -0.000000 -0.000000 0.000000 -11.429399 -2.073911 -2.634765 14.067069 -4.012173 -0.883801 -2.941864 -0.576890 4.101369 -0.000009 0.000000 -0.000000 0.000000 -0.000000 -0.000000 
0.230539 96.200500 -0.876720 0.022619 -1.714029 -0.890142 1.143309 0.382031 -1.132436 2.312976 0.891696 -0.407630 2.313997 0.886233 -0.413487 -8.529508 0.311079 -0.336044 0.113889 0.627576 4.233914 -0.000000 0.000000 0.000000 0.861482 0.880965 -5.074836 21.939705 -49.219494 -44.234303 0.000003 -24.624772 -0.000007 -31.632010 17.678498 -6.550486 -1.593601 7.402612 6.696237 5.056661 22.085446 1.753724 0.056004 8.626813 3.219230 -0.000002 0.000001 -0.000001 0.058218 0.895335 -7.440590 0.058219 0.895334 -7.440510 0.014566 0.448611 -3.720029 0.000002 0.000000 -0.000002 0.057971 0.893423 -7.424607 0.058464 0.897246 -7.456506 0.014566 0.448613 -3.720036 -0.000001 0.000000 0.000000 0.058218 0.895335 -7.440590 0.058215 0.895334 -7.440510 0.014565 0.448610 -3.720028 -0.000000 0.000001 0.000000 0.566784 4.917706 -6.955958 0.048198 -3.159476 -7.946952 0.014571 0.448611 -3.720030 0.000004 0.000000 -0.000000 1.662690 5.190759 8.889098 18.296257 50.613423 48.526025 0.000006 9.552428 -0.000006 -28.785662 7.069353 -3.589491 -1.870550 -5.343005 -6.859846 5.776361 -21.591584 -1.073050 -0.685528 -6.323994 -2.776915 -0.000000 0.000000 0.000003 0.051394 -0.845642 6.956595 0.051400 -0.845633 6.956567 0.012862 -0.423599 3.478110 -0.000005 0.000000 -0.000001 0.051395 -0.845642 6.956594 0.051401 -0.845632 6.956568 0.012860 -0.423601 3.478115 0.000000 0.000001 0.000000 0.051394 -0.845643 6.956592 0.051403 -0.845630 6.956569 0.012862 -0.423600 3.478110 0.000003 -0.000000 0.000000 0.051394 -0.845642 6.956594 0.051403 -0.845633 6.956568 0.012862 -0.423598 3.478110 -0.000000 -0.000000 0.000000 -9.823109 0.361888 6.286647 15.233653 8.245492 1.782436 -4.455894 1.125032 -7.739812 -0.000608 0.000003 -0.000001 -0.000000 -0.000000 0.000000 -11.415016 -2.086533 -2.614532 14.052389 -4.000149 -0.893176 -2.936212 -0.576641 4.103274 -0.000005 -0.000001 0.000000 -0.000000 0.000000 0.000000 
0.234145 96.193687 -0.878321 0.015918 -1.720987 -0.914509 1.136382 0.385150 -1.134205 2.299271 0.900582 -0.401284 2.300343 0.895107 -0.407151 -8.531887 0.307441 -0.335830 0.084876 0.605798 4.245794 -0.000000 0.000000 -0.000000 0.859855 0.900997 -5.082740 22.004542 -49.278230 -44.168655 0.000007 -24.649984 0.000004 -31.832991 17.700597 -6.533795 -1.593608 7.402935 6.696274 5.056959 22.089566 1.753992 0.056176 8.628863 3.219425 -0.000004 -0.000003 -0.000002 0.058227 0.895439 -7.441412 0.058229 0.895417 -7.441173 0.014572 0.448653 -3.720364 -0.000000 0.000000 -0.000002 0.057984 0.893531 -7.425421 0.058473 0.897326 -7.457162 0.014577 0.448657 -3.720363 0.000001 0.000000 -0.000000 0.058227 0.895439 -7.441411 0.058227 0.895418 -7.441173 0.014573 0.448652 -3.720359 0.000002 0.000000 -0.000000 0.566856 4.917801 -6.956785 0.048213 -3.159398 -7.947640 0.014578 0.448653 -3.720372 0.000001 0.000001 0.000000 1.670357 5.252029 8.925889 18.557370 50.669512 48.311134 0.000001 9.609279 0.000004 -28.946383 7.050157 -3.580915 -1.870525 -5.341984 -6.859705 5.766664 -21.475255 -1.066337 -0.690476 -6.265987 -2.771011 0.000000 0.000000 0.000002 0.045157 -0.792723 6.519304 0.045140 -0.792718 6.519316 0.011294 -0.397006 3.259491 0.000002 0.000001 -0.000000 0.045158 -0.792723 6.519303 0.045147 -0.792718 6.519317 0.011290 -0.397007 3.259490 -0.000002 0.000000 -0.000000 0.045156 -0.792721 6.519309 0.045144 -0.792722 6.519311 0.011293 -0.397006 3.259492 -0.000001 0.000001 -0.000000 0.045157 -0.792723 6.519303 0.045147 -0.792719 6.519315 0.011293 -0.397004 3.259492 0.000003 0.000000 -0.000000 -9.848565 0.429515 6.295377 15.274057 8.192549 1.809843 -4.476717 1.116999 -7.736631 -0.000662 -0.000002 0.000002 -0.000000 0.000000 0.000000 -11.410731 -2.096131 -2.584386 14.054032 -3.996610 -0.906037 -2.934879 -0.576975 4.108451 -0.000007 0.000003 0.000001 0.000000 -0.000001 -0.000000 
0.237218 96.180542 -0.882161 0.003234 -1.725604 -0.944146 1.134146 0.389114 -1.131935 2.290183 0.910119 -0.386158 2.291316 0.904640 -0.392092 -8.545219 0.305385 -0.349125 0.050265 0.574875 4.237527 0.000000 0.000000 0.000000 0.852574 0.936610 -5.095462 22.093188 -49.379583 -44.070932 -0.000001 -24.663166 -0.000002 -32.108166 17.672283 -6.467377 -1.593590 7.402667 6.696237 5.057339 22.094755 1.754314 0.056390 8.631460 3.219674 -0.000001 0.000002 -0.000001 0.058259 0.895598 -7.442799 0.058242 0.895542 -7.442286 0.014578 0.448714 -3.720933 0.000000 -0.000000 -0.000001 0.058005 0.893686 -7.426822 0.058492 0.897454 -7.458251 0.014578 0.448712 -3.720935 0.000000 -0.000001 -0.000001 0.058259 0.895598 -7.442799 0.058241 0.895542 -7.442286 0.014576 0.448717 -3.720921 0.000004 0.000000 0.000000 0.566981 4.917941 -6.958208 0.048231 -3.159260 -7.948713 0.014577 0.448711 -3.720924 0.000000 -0.000000 0.000001 1.665456 5.210211 8.888066 18.630355 50.827358 48.248282 0.000002 9.450024 0.000000 -28.902280 7.200612 -3.598762 -1.870698 -5.353662 -6.861518 5.760449 -21.400342 -1.061984 -0.693661 -6.228642 -2.767236 -0.000000 -0.000001 -0.000001 0.037351 -0.721286 5.929489 0.037350 -0.721283 5.929492 0.009347 -0.361132 2.964612 0.000000 0.000001 0.000000 0.037352 -0.721286 5.929487 0.037354 -0.721282 5.929493 0.009353 -0.361132 2.964605 0.000006 0.000001 -0.000000 0.037357 -0.721284 5.929490 0.037346 -0.721285 5.929490 0.009343 -0.361131 2.964611 -0.000002 0.000000 -0.000000 0.037351 -0.721286 5.929487 0.037354 -0.721283 5.929492 0.009346 -0.361132 2.964612 0.000003 -0.000001 0.000000 -9.877984 0.477539 6.315205 15.336483 8.154343 1.832827 -4.506301 1.107946 -7.740597 -0.000797 -0.000001 0.000002 0.000000 0.000000 -0.000000 -11.408506 -2.105446 -2.549652 14.069965 -3.998079 -0.917766 -2.938208 -0.577585 4.113455 -0.000015 0.000004 -0.000001 0.000000 -0.000001 0.000000 
